<svg xmlns="http://www.w3.org/2000/svg" xmlns:xlink="http://www.w3.org/1999/xlink" width="44px" height="35px"><path fill-rule="evenodd" stroke="#FFFFFF"s d="M43.407,13.195 C43.407,19.113 41.017,24.465 37.154,28.334 C33.290,32.201 27.945,34.594 22.035,34.595 L22.035,34.604 L22.034,34.604 L22.034,34.604 L22.034,34.595 C16.123,34.594 10.777,32.201 6.915,28.333 C3.051,24.465 0.662,19.113 0.661,13.196 C0.661,11.695 1.866,10.476 3.366,10.476 C4.865,10.476 6.081,11.693 6.081,13.194 L6.081,13.196 C6.081,17.598 7.860,21.592 10.754,24.490 C13.647,27.386 17.636,29.179 22.034,29.179 L22.034,29.168 L22.034,29.168 L22.035,29.168 L22.035,29.179 C26.432,29.179 30.421,27.386 33.314,24.490 C36.208,21.592 37.998,17.598 37.998,13.195 L37.988,13.195 L37.988,13.194 C37.988,11.693 39.203,10.476 40.703,10.476 C42.202,10.476 43.418,11.693 43.418,13.194 L43.418,13.195 L43.407,13.195 ZM31.352,22.524 C28.973,24.905 25.680,26.378 22.035,26.378 L22.035,26.388 L22.034,26.388 L22.034,26.388 L22.034,26.378 C18.388,26.378 15.095,24.905 12.717,22.524 C10.339,20.142 8.867,16.844 8.867,13.196 L8.856,13.196 L8.856,13.194 L8.856,13.194 L8.867,13.194 C8.867,9.544 10.339,6.246 12.717,3.865 C15.095,1.484 18.388,0.011 22.032,0.011 L22.032,0.000 L22.034,0.000 L22.035,0.000 L22.035,0.011 C25.679,0.011 28.974,1.484 31.352,3.866 C33.730,6.247 35.201,9.544 35.201,13.193 L35.212,13.193 L35.212,13.194 L35.212,13.195 L35.201,13.195 C35.201,16.844 33.730,20.142 31.352,22.524 ZM29.792,13.193 C29.792,11.059 28.921,9.119 27.513,7.709 C26.104,6.299 24.167,5.426 22.035,5.426 L22.035,5.437 L22.034,5.437 L22.032,5.437 L22.032,5.426 C19.901,5.426 17.964,6.299 16.556,7.709 C15.147,9.119 14.276,11.059 14.276,13.194 L14.286,13.194 L14.286,13.194 L14.286,13.196 L14.276,13.196 C14.276,15.330 15.147,17.270 16.556,18.680 C17.964,20.090 19.901,20.963 22.034,20.963 L22.034,20.952 L22.034,20.952 L22.035,20.952 L22.035,20.963 C24.167,20.963 26.104,20.090 27.512,18.680 C28.921,17.270 29.792,15.330 29.792,13.195 L29.782,13.195 L29.782,13.194 L29.782,13.193 L29.792,13.193 ZM3.370,9.249 C1.509,9.249 -0.000,7.737 -0.000,5.874 C-0.000,4.011 1.509,2.500 3.370,2.500 C5.231,2.500 6.741,4.011 6.741,5.874 C6.741,7.737 5.231,9.249 3.370,9.249 Z" ></path></svg>
